<svg width="48" height="48" viewBox="0 0 48 48" fill="none" xmlns="http://www.w3.org/2000/svg">
<path fill-rule="evenodd" clip-rule="evenodd" d="M25.5763 3.28631C24.5976 2.73578 23.4026 2.73578 22.4239 3.28631L6.43897 12.2778C5.42661 12.8473 4.80011 13.9185 4.80011 15.08V32.9193C4.80011 34.0809 5.42661 35.1521 6.43897 35.7215L22.4239 44.713C23.4026 45.2636 24.5976 45.2636 25.5764 44.713L41.5613 35.7215C42.5736 35.1521 43.2001 34.0809 43.2001 32.9193V15.08C43.2001 13.9185 42.5736 12.8473 41.5613 12.2778L25.5763 3.28631ZM25.6201 8.14467C24.6191 7.56072 23.3812 7.56072 22.3802 8.14467L11.1953 14.6692C10.2075 15.2454 9.60015 16.3028 9.60015 17.4463V30.553C9.60015 31.6965 10.2075 32.754 11.1953 33.3302L22.3802 39.8547C23.3812 40.4386 24.6191 40.4386 25.6201 39.8547L36.805 33.3302C37.7928 32.754 38.4001 31.6965 38.4001 30.553V17.4463C38.4001 16.3028 37.7928 15.2454 36.805 14.6692L25.6201 8.14467Z" fill="#13E5BF" fill-opacity="0.2"/>
<path fill-rule="evenodd" clip-rule="evenodd" d="M24.5882 4.10827L41.3882 13.5583C41.7661 13.7708 41.9999 14.1706 41.9999 14.6042V33.3969C41.9999 33.8304 41.7661 34.2302 41.3882 34.4428L24.5882 43.8928C24.2229 44.0983 23.7769 44.0983 23.4116 43.8928L6.61161 34.4428C6.23376 34.2302 5.99993 33.8304 5.99993 33.3969V14.6042C5.99993 14.1706 6.23376 13.7708 6.61161 13.5583L23.4116 4.10828C23.7769 3.9028 24.2229 3.9028 24.5882 4.10827ZM22.8233 3.06238C23.5539 2.65143 24.446 2.65143 25.1766 3.06238L41.9766 12.5124C42.7323 12.9375 43.1999 13.7371 43.1999 14.6042V33.3969C43.1999 34.264 42.7323 35.0636 41.9766 35.4887L25.1766 44.9387C24.446 45.3496 23.5539 45.3496 22.8233 44.9387L6.0233 35.4887C5.2676 35.0636 4.79993 34.264 4.79993 33.3969V14.6042C4.79993 13.7371 5.2676 12.9375 6.0233 12.5124L22.8233 3.06238ZM24.8929 13.117L26.8613 11.9998L33.1238 15.5551V18.8056L36.0002 20.4384V27.5692L33.1238 29.2001V32.4444L26.8613 35.9998L24.8929 34.8823V25.1305L15.4088 19.7454L13.0751 21.0687V26.9236L15.4062 28.2469L17.9196 26.8286L17.9294 26.7346C17.9857 26.1771 18.4424 25.7569 18.9919 25.7569C19.5848 25.7569 20.0669 26.2451 20.0669 26.8454C20.0669 27.4458 19.5848 27.934 18.9919 27.934C18.8344 27.934 18.6777 27.8963 18.5254 27.8213L18.4419 27.7804L15.9515 29.1851V31.8066L21.1388 34.7517L22.0324 34.2444V33.2568L17.0236 30.4171V29.8467L17.6217 29.5092L22.0324 32.0089V24.7606L23.1074 25.3709V34.8823L21.1388 35.9998L14.8767 32.4444V29.1947L12.0002 27.5614V20.4301L14.8767 18.7992V15.5551L21.1388 11.9998L23.1074 13.1173V22.869L32.5915 28.2542L34.9252 26.9308V21.0762L32.5941 19.7524L30.0807 21.1713L30.0715 21.2652C30.0149 21.8222 29.5581 22.2427 29.0084 22.2427C28.4152 22.2427 27.9334 21.7542 27.9334 21.1541C27.9334 20.5538 28.4152 20.0653 29.0084 20.0653C29.1659 20.0653 29.3229 20.1035 29.4749 20.1782L29.5584 20.2194L32.0491 18.8142V16.193L26.8613 13.2479L25.9676 13.7548V14.7428L30.9768 17.5822V18.1526L30.3783 18.4901L29.6618 18.084L29.6583 18.0859L25.9676 15.9906V23.2183L24.8929 22.6078V13.117ZM21.1386 13.2479L15.9513 16.193V18.1897L22.0323 14.7425V13.7554L21.1386 13.2479ZM16.5091 19.122L22.0324 15.9901V22.2582L16.5091 19.122ZM31.4913 28.878L25.9676 25.741V32.0096L31.4913 28.878ZM25.9676 34.2443V33.2572L32.0491 29.8097V31.8065L26.8612 34.7516L25.9676 34.2443Z" fill="url(#paint0_linear_310_8022)"/>
<defs>
<linearGradient id="paint0_linear_310_8022" x1="4.79993" y1="2.75417" x2="4.79993" y2="45.2469" gradientUnits="userSpaceOnUse">
<stop stop-color="#13E5BF"/>
<stop offset="1" stop-color="#01C38D"/>
<stop offset="1" stop-color="#01C38D"/>
</linearGradient>
</defs>
</svg>
