<svg width="48" height="48" viewBox="0 0 48 48" fill="none" xmlns="http://www.w3.org/2000/svg">
<path fill-rule="evenodd" clip-rule="evenodd" d="M18.9792 6.19777H10.3874C9.93605 6.19777 9.50933 6.39154 9.22669 6.7252L2.32531 15.4415C2.09283 15.7161 1.98659 16.6499 2.00146 16.98H16.3274L18.9792 6.19777Z" fill="#13E5BF" fill-opacity="0.2"/>
<path fill-rule="evenodd" clip-rule="evenodd" d="M28.1498 6.19777H36.7416C37.193 6.19777 37.6197 6.39154 37.9023 6.7252L44.8037 15.4415C45.0362 15.7161 45.1424 16.6499 45.1276 16.98H30.8016L28.1498 6.19777Z" fill="#13E5BF" fill-opacity="0.2"/>
<path fill-rule="evenodd" clip-rule="evenodd" d="M22.7243 40.5122C22.9543 40.7554 23.2535 40.8949 23.5645 40.9406L16.3763 16.3811H2.59906C2.61297 16.6957 2.73656 17.0059 2.97146 17.253L22.7243 40.5122Z" fill="#13E5BF" fill-opacity="0.2"/>
<path fill-rule="evenodd" clip-rule="evenodd" d="M24.4046 40.5122C24.1746 40.7554 23.8755 40.8949 23.5645 40.9406L30.7526 16.3811H44.5299C44.516 16.6957 44.3924 17.0059 44.1575 17.253L24.4046 40.5122Z" fill="#13E5BF" fill-opacity="0.2"/>
<path fill-rule="evenodd" clip-rule="evenodd" d="M44.7567 17.5792C45.2275 17.0201 45.3117 15.7739 44.875 15.1832L37.293 5.57576C37.0241 5.21195 36.6169 4.99998 36.1867 4.99998H10.9389C10.5091 4.99998 10.102 5.21195 9.83296 5.57576L2.36936 15.1832C1.93225 15.7739 1.89818 17.0201 2.36932 17.5792L22.516 41.6388C23.0783 42.3054 24.0477 42.3054 24.61 41.6388L44.7567 17.5792ZM36.3297 6.28801L36.3409 6.30315L43.8216 15.7822H31.1303L28.5973 6.19801H36.1867C36.2143 6.19801 36.2728 6.21102 36.3297 6.28801ZM27.3581 6.19801L29.8911 15.7822H17.2348L19.7678 6.19801H27.3581ZM18.5286 6.19801L15.9956 15.7822H3.42107L10.7878 6.29947L10.7963 6.28801C10.8533 6.21086 10.9119 6.19801 10.9389 6.19801H18.5286ZM3.4303 16.9802L22.2863 39.4984L15.8343 16.9802H3.4303ZM24.8396 39.4986L43.6957 16.9802H31.2916L24.8396 39.4986ZM23.563 39.6046L17.0806 16.9802H30.0453L23.563 39.6046Z" fill="url(#paint0_linear_310_8034)"/>
<defs>
<linearGradient id="paint0_linear_310_8034" x1="51.3324" y1="23.5694" x2="2.02863" y2="23.5694" gradientUnits="userSpaceOnUse">
<stop stop-color="#13E5BF"/>
<stop offset="1" stop-color="#01C38D"/>
</linearGradient>
</defs>
</svg>
