<svg width="48" height="48" viewBox="0 0 48 48" fill="none" xmlns="http://www.w3.org/2000/svg">
<path fill-rule="evenodd" clip-rule="evenodd" d="M22.8237 3.06164C23.5543 2.65068 24.4463 2.65068 25.1769 3.06164L36.499 9.4303C35.5739 10.3377 35 11.6018 35 13C35 13.2168 35.0138 13.4304 35.0406 13.64L25.2096 7.9052C24.4623 7.4693 23.5383 7.46929 22.791 7.9052L10.791 14.9052C10.0537 15.3353 9.60029 16.1247 9.60029 16.9783V31.0213C9.60029 31.8749 10.0537 32.6643 10.791 33.0944L22.791 40.0944C23.5383 40.5303 24.4623 40.5303 25.2096 40.0944L37.2096 33.0944C37.9469 32.6643 38.4003 31.8749 38.4003 31.0213V17.7386C38.9026 17.9081 39.4406 18 40 18C41.2174 18 42.3332 17.5649 43.2003 16.8418V33.3961C43.2003 34.2632 42.7326 35.0628 41.9769 35.4879L25.1769 44.9379C24.4463 45.3489 23.5543 45.3489 22.8237 44.9379L6.02367 35.4879C5.26796 35.0628 4.80029 34.2632 4.80029 33.3962V14.6034C4.80029 13.7364 5.26796 12.9367 6.02367 12.5116L22.8237 3.06164Z" fill="#13E5BF" fill-opacity="0.2"/>
<path fill-rule="evenodd" clip-rule="evenodd" d="M22.8232 3.06261C23.5538 2.65166 24.4458 2.65165 25.1764 3.06261L35.5969 8.92413C36.6928 7.74075 38.2599 6.99999 40 6.99999C43.3138 6.99999 46 9.68629 46 13C46 15.1373 44.8825 17.0137 43.1998 18.0765V33.3971C43.1998 34.2642 42.7321 35.0638 41.9764 35.4889L25.1764 44.9389C24.4458 45.3499 23.5538 45.3499 22.8232 44.9389L6.02318 35.4889C5.26747 35.0638 4.7998 34.2642 4.7998 33.3971V14.6044C4.7998 13.7373 5.26747 12.9377 6.02318 12.5126L22.8232 3.06261ZM41.9998 17.5841C42.4357 17.3936 42.8393 17.1428 43.1998 16.8422C44.2999 15.925 45 14.5443 45 13C45 10.2386 42.7615 7.99999 40 7.99999C38.6364 7.99999 37.4002 8.5459 36.4982 9.4311C36.2451 9.67945 36.0183 9.95451 35.8224 10.2517C35.3026 11.0403 35 11.9848 35 13C35 15.7614 37.2386 18 40 18C40.7111 18 41.3874 17.8516 41.9998 17.5841ZM34.8675 9.89067C34.317 10.7974 34 11.8617 34 13C34 16.3137 36.6863 19 40 19C40.7012 19 41.3743 18.8797 41.9998 18.6587V33.3971C41.9998 33.8307 41.766 34.2305 41.3881 34.443L24.5881 43.893C24.2228 44.0985 23.7768 44.0985 23.4115 43.893L6.61149 34.443C6.23364 34.2305 5.9998 33.8307 5.9998 33.3971V14.6044C5.9998 14.1709 6.23364 13.771 6.61149 13.5585L23.4115 4.1085C23.7768 3.90302 24.2228 3.90302 24.5881 4.1085L34.8675 9.89067ZM24.8927 13.1172L26.8611 12L33.1237 15.5554V18.8059L36 20.4386V27.5694L33.1237 29.2003V32.4446L26.8611 36L24.8927 34.8825V25.1307L15.4087 19.7456L13.075 21.069V26.9238L15.406 28.2471L17.9194 26.8288L17.9292 26.7348C17.9855 26.1773 18.4423 25.7571 18.9918 25.7571C19.5847 25.7571 20.0668 26.2453 20.0668 26.8457C20.0668 27.446 19.5847 27.9342 18.9918 27.9342C18.8343 27.9342 18.6775 27.8965 18.5253 27.8216L18.4417 27.7806L15.9513 29.1853V31.8068L21.1386 34.7519L22.0323 34.2447V33.257L17.0234 30.4174V29.847L17.6216 29.5094L22.0323 32.0091V24.7608L23.1073 25.3711V34.8825L21.1386 36L14.8766 32.4446V29.1949L12 27.5617V20.4303L14.8766 18.7994V15.5554L21.1386 12L23.1073 13.1175V22.8693L32.5913 28.2544L34.925 26.931V21.0765L32.594 19.7526L30.0806 21.1715L30.0713 21.2654C30.0147 21.8224 29.558 22.2429 29.0082 22.2429C28.4151 22.2429 27.9332 21.7544 27.9332 21.1543C27.9332 20.554 28.4151 20.0655 29.0082 20.0655C29.1657 20.0655 29.3227 20.1038 29.4747 20.1784L29.5583 20.2197L32.0489 18.8144V16.1932L26.8611 13.2481L25.9675 13.7551V14.743L30.9766 17.5824V18.1528L30.3782 18.4903L29.6616 18.0842L29.6582 18.0861L25.9675 15.9909V23.2186L24.8927 22.608V13.1172ZM21.1384 13.2481L15.9512 16.1932V18.19L22.0321 14.7427V13.7556L21.1384 13.2481ZM16.509 19.1222L22.0322 15.9903V22.2584L16.509 19.1222ZM31.4912 28.8782L25.9674 25.7412V32.0099L31.4912 28.8782ZM25.9674 34.2446V33.2574L32.0489 29.8099V31.8067L26.8611 34.7518L25.9674 34.2446Z" fill="url(#paint0_linear_310_8035)"/>
<path d="M41.3499 10.0498H42.4999L38.6499 16.3498H37.4999L41.3499 10.0498ZM41.5999 16.3998C41.3999 16.3998 41.2133 16.3665 41.0399 16.2998C40.8733 16.2265 40.7266 16.1265 40.5999 15.9998C40.4733 15.8731 40.3733 15.7265 40.2999 15.5598C40.2333 15.3865 40.1999 15.1998 40.1999 14.9998C40.1999 14.7998 40.2333 14.6165 40.2999 14.4498C40.3733 14.2765 40.4733 14.1265 40.5999 13.9998C40.7266 13.8731 40.8733 13.7765 41.0399 13.7098C41.2133 13.6365 41.3999 13.5998 41.5999 13.5998C41.7999 13.5998 41.9833 13.6365 42.1499 13.7098C42.3233 13.7765 42.4733 13.8731 42.5999 13.9998C42.7266 14.1265 42.8233 14.2765 42.8899 14.4498C42.9633 14.6165 42.9999 14.7998 42.9999 14.9998C42.9999 15.1998 42.9633 15.3865 42.8899 15.5598C42.8233 15.7265 42.7266 15.8731 42.5999 15.9998C42.4733 16.1265 42.3233 16.2265 42.1499 16.2998C41.9833 16.3665 41.7999 16.3998 41.5999 16.3998ZM41.5999 15.5498C41.7533 15.5498 41.8833 15.4965 41.9899 15.3898C42.0966 15.2831 42.1499 15.1531 42.1499 14.9998C42.1499 14.8465 42.0966 14.7165 41.9899 14.6098C41.8833 14.5031 41.7533 14.4498 41.5999 14.4498C41.4466 14.4498 41.3166 14.5031 41.2099 14.6098C41.1033 14.7165 41.0499 14.8465 41.0499 14.9998C41.0499 15.1531 41.1033 15.2831 41.2099 15.3898C41.3166 15.4965 41.4466 15.5498 41.5999 15.5498ZM38.3999 12.7998C38.1999 12.7998 38.0133 12.7665 37.8399 12.6998C37.6733 12.6265 37.5266 12.5265 37.3999 12.3998C37.2733 12.2731 37.1733 12.1265 37.0999 11.9598C37.0333 11.7865 36.9999 11.5998 36.9999 11.3998C36.9999 11.1998 37.0333 11.0165 37.0999 10.8498C37.1733 10.6765 37.2733 10.5265 37.3999 10.3998C37.5266 10.2732 37.6733 10.1765 37.8399 10.1098C38.0133 10.0365 38.1999 9.99982 38.3999 9.99982C38.5999 9.99982 38.7833 10.0365 38.9499 10.1098C39.1233 10.1765 39.2733 10.2732 39.3999 10.3998C39.5266 10.5265 39.6233 10.6765 39.6899 10.8498C39.7633 11.0165 39.7999 11.1998 39.7999 11.3998C39.7999 11.5998 39.7633 11.7865 39.6899 11.9598C39.6233 12.1265 39.5266 12.2731 39.3999 12.3998C39.2733 12.5265 39.1233 12.6265 38.9499 12.6998C38.7833 12.7665 38.5999 12.7998 38.3999 12.7998ZM38.3999 11.9498C38.5533 11.9498 38.6833 11.8965 38.7899 11.7898C38.8966 11.6832 38.9499 11.5532 38.9499 11.3998C38.9499 11.2465 38.8966 11.1165 38.7899 11.0098C38.6833 10.9031 38.5533 10.8498 38.3999 10.8498C38.2466 10.8498 38.1166 10.9031 38.0099 11.0098C37.9033 11.1165 37.8499 11.2465 37.8499 11.3998C37.8499 11.5532 37.9033 11.6832 38.0099 11.7898C38.1166 11.8965 38.2466 11.9498 38.3999 11.9498Z" fill="url(#paint1_linear_310_8035)"/>
<defs>
<linearGradient id="paint0_linear_310_8035" x1="51.8956" y1="24.0008" x2="4.79981" y2="24.0008" gradientUnits="userSpaceOnUse">
<stop stop-color="#13E5BF"/>
<stop offset="1" stop-color="#01C38D"/>
</linearGradient>
<linearGradient id="paint1_linear_310_8035" x1="43.8585" y1="13.1998" x2="36.9999" y2="13.1998" gradientUnits="userSpaceOnUse">
<stop stop-color="#13E5BF"/>
<stop offset="1" stop-color="#01C38D"/>
</linearGradient>
</defs>
</svg>
