<svg width="48" height="48" viewBox="0 0 48 48" fill="none" xmlns="http://www.w3.org/2000/svg">
<path d="M44.4076 19.2034C42.2366 9.9162 33.9033 2.99927 23.9546 2.99927C22.0734 2.99927 20.2501 3.24656 18.5152 3.7104L18.521 3.70647C16.9073 4.13809 15.372 4.75647 13.9389 5.53648C7.55558 9.00585 3.17184 15.6884 2.9587 23.413L1.96751 21.362C1.82331 21.0637 1.46456 20.9387 1.16621 21.0829C0.86785 21.227 0.742873 21.5858 0.887061 21.8842L2.94572 26.144C3.04026 26.3396 3.23315 26.4688 3.45001 26.4818C3.66687 26.4949 3.87383 26.3896 3.99107 26.2067L6.54433 22.2236C6.72316 21.9446 6.64198 21.5735 6.363 21.3947C6.08403 21.2158 5.7129 21.297 5.53408 21.576L4.16701 23.7086C4.26779 16.3336 8.42374 9.88668 14.5514 6.56967C17.3488 5.05763 20.5515 4.19927 23.9546 4.19927C33.2368 4.19927 41.0274 10.5852 43.1729 19.2034L44.4076 19.2034Z" fill="url(#paint0_linear_310_8048)"/>
<path d="M44.87 22.0215C44.7664 21.8305 44.5677 21.7104 44.3505 21.7075C44.1333 21.7046 43.9314 21.8194 43.8229 22.0076L41.4582 26.1055C41.2926 26.3925 41.391 26.7594 41.678 26.925C41.965 27.0907 42.332 26.9922 42.4976 26.7052L43.7511 24.5329C43.6478 28.4677 42.3968 32.1166 40.3206 35.1573C38.3581 38.0272 35.6578 40.3592 32.4844 41.8733L32.4621 41.8917C29.8844 43.1199 26.9995 43.8073 23.9541 43.8073C14.6921 43.8073 6.91524 37.4492 4.74987 28.8597L3.5143 28.8597C5.70584 38.1184 14.0255 45.0073 23.9541 45.0073C31.1826 45.0073 37.5583 41.3557 41.3371 35.7966C43.5086 32.6064 44.8217 28.7926 44.9548 24.6954L46.0702 26.7526C46.2282 27.0439 46.5924 27.152 46.8837 26.9941C47.175 26.8361 47.2831 26.4719 47.1252 26.1806L44.87 22.0215Z" fill="url(#paint1_linear_310_8048)"/>
<path fill-rule="evenodd" clip-rule="evenodd" d="M24.4479 11.3258C24.1703 11.1674 23.8296 11.1674 23.552 11.3258L13.1095 17.28C12.8273 17.441 12.6531 17.7409 12.6531 18.0657V29.9333C12.6531 30.2582 12.8273 30.5581 13.1095 30.719L23.552 36.6732C23.8296 36.8316 24.1703 36.8316 24.4479 36.6732L34.8904 30.719C35.1726 30.5581 35.3468 30.2582 35.3468 29.9333V18.0657C35.3468 17.7409 35.1726 17.441 34.8904 17.28L24.4479 11.3258ZM23.0566 10.4571C23.6413 10.1237 24.3586 10.1237 24.9433 10.4571L35.3857 16.4113C35.9799 16.7502 36.3468 17.3817 36.3468 18.0657V29.9333C36.3468 30.6174 35.9799 31.2488 35.3857 31.5877L24.9433 37.5419C24.3586 37.8753 23.6413 37.8753 23.0566 37.5419L12.6142 31.5877C12.0199 31.2488 11.6531 30.6174 11.6531 29.9333V18.0657C11.6531 17.3817 12.0199 16.7502 12.6142 16.4113L23.0566 10.4571Z" fill="url(#paint2_linear_310_8048)"/>
<path fill-rule="evenodd" clip-rule="evenodd" d="M24 40.6216C33.1802 40.6216 40.6223 33.1795 40.6223 23.9992C40.6223 14.819 33.1802 7.37689 24 7.37689C14.8197 7.37689 7.37762 14.819 7.37762 23.9992C7.37762 33.1795 14.8197 40.6216 24 40.6216ZM22.9628 9.11079C23.6056 8.74424 24.3942 8.74424 25.0371 9.11079L36.5182 15.6573C37.1715 16.0298 37.5749 16.7241 37.5749 17.4762V30.5242C37.5749 31.2763 37.1715 31.9706 36.5182 32.3431L25.0371 38.8896C24.3942 39.2562 23.6056 39.2562 22.9628 38.8896L11.4817 32.3431C10.8283 31.9706 10.425 31.2763 10.425 30.5242V17.4762C10.425 16.7241 10.8283 16.0298 11.4817 15.6573L22.9628 9.11079Z" fill="#13E5BF" fill-opacity="0.1"/>
<path fill-rule="evenodd" clip-rule="evenodd" d="M26.1934 14.8008L24.6844 15.6573V22.9331L25.5083 23.4012V17.8603L28.3377 19.4665L28.3403 19.4651L28.8897 19.7764L29.3484 19.5176V19.0804L25.5083 16.9036V16.1463L26.1934 15.7576L30.1705 18.0154V20.0249L28.2611 21.1022L28.1971 21.0706C28.0806 21.0133 27.9602 20.984 27.8394 20.984C27.3847 20.984 27.0153 21.3585 27.0153 21.8187C27.0153 22.2788 27.3847 22.6532 27.8394 22.6532C28.2609 22.6532 28.611 22.3309 28.6544 21.9039L28.6615 21.8318L30.5883 20.7441L32.3754 21.759V26.2473L30.5863 27.2618L23.3156 23.1334V15.6575L21.8064 14.8008L17.0058 17.5264V20.0134L14.8005 21.2637V26.7307L17.0058 27.9828V30.4741L21.8064 33.1997L23.3156 32.343V25.0514L22.4915 24.5835V30.1403L19.1102 28.2239L18.6516 28.4827V28.9199L22.4915 31.0969V31.8541L21.8064 32.2429L17.8297 29.9851V27.9754L19.7389 26.8986L19.803 26.93C19.9197 26.9874 20.0398 27.0163 20.1606 27.0163C20.6151 27.0163 20.9847 26.6421 20.9847 26.1818C20.9847 25.7215 20.6151 25.3473 20.1606 25.3473C19.7393 25.3473 19.3892 25.6694 19.346 26.0969L19.3385 26.1689L17.4117 27.2562L15.6246 26.2417V21.7533L17.4137 20.7388L24.6844 24.8671V32.343L26.1934 33.1997L30.9944 30.4741V27.9869L33.1995 26.7367V21.27L30.9944 20.0183V17.5264L26.1934 14.8008ZM17.8296 18.0154L21.8063 15.7576L22.4914 16.1467V16.9034L17.8296 19.5461V18.0154ZM22.4915 17.8598L18.2572 20.2608L22.4915 22.6651V17.8598ZM25.5083 25.3351L29.7429 27.74L25.5083 30.1408V25.3351ZM25.5083 31.0972V31.854L26.1934 32.2428L30.1705 29.985V28.4543L25.5083 31.0972Z" fill="url(#paint3_linear_310_8048)"/>
<defs>
<linearGradient id="paint0_linear_310_8048" x1="22.6174" y1="29.8433" x2="22.6174" y2="2.99927" gradientUnits="userSpaceOnUse">
<stop stop-color="#13E5BF"/>
<stop offset="1" stop-color="#01C38D"/>
</linearGradient>
<linearGradient id="paint1_linear_310_8048" x1="25.3561" y1="48.3414" x2="25.3561" y2="21.7075" gradientUnits="userSpaceOnUse">
<stop stop-color="#13E5BF"/>
<stop offset="1" stop-color="#01C38D"/>
</linearGradient>
<linearGradient id="paint2_linear_310_8048" x1="39.8804" y1="23.9995" x2="11.6531" y2="23.9995" gradientUnits="userSpaceOnUse">
<stop stop-color="#13E5BF"/>
<stop offset="1" stop-color="#01C38D"/>
</linearGradient>
<linearGradient id="paint3_linear_310_8048" x1="14.8005" y1="14.8008" x2="14.8005" y2="33.1997" gradientUnits="userSpaceOnUse">
<stop stop-color="#13E5BF"/>
<stop offset="1" stop-color="#01C38D"/>
<stop offset="1" stop-color="#01C38D"/>
</linearGradient>
</defs>
</svg>
