<svg width="41" height="41" viewBox="0 0 41 41" fill="none" xmlns="http://www.w3.org/2000/svg">
<path d="M5.5 27L20.5 36C17.6482 36.899 13.9926 36.5739 11.1935 34.9924C8.38998 33.4084 6.12753 29.8718 5.5 27Z" fill="#13E5BF" fill-opacity="0.2"/>
<path d="M35.5 27L20.5 35.5C23.7321 36.5566 27.875 36.1636 31.0474 34.305C34.2247 32.4435 34.7888 30.375 35.5 27Z" fill="#13E5BF" fill-opacity="0.2"/>
<circle cx="20.5" cy="14.5" r="9" fill="#13E5BF" fill-opacity="0.2"/>
<path fill-rule="evenodd" clip-rule="evenodd" d="M20.5 25.4998C26.5752 25.4998 31.5 20.5749 31.5 14.4998C31.5 8.42462 26.5752 3.49976 20.5 3.49976C14.4249 3.49976 9.50002 8.42462 9.50002 14.4998C9.50002 20.5749 14.4249 25.4998 20.5 25.4998ZM20.5 26.4998C27.1274 26.4998 32.5 21.1272 32.5 14.4998C32.5 7.87234 27.1274 2.49976 20.5 2.49976C13.8726 2.49976 8.50002 7.87234 8.50002 14.4998C8.50002 21.1272 13.8726 26.4998 20.5 26.4998Z" fill="url(#paint0_linear)"/>
<path fill-rule="evenodd" clip-rule="evenodd" d="M34.9106 27.3822C34.2117 30.2916 32.6603 32.9928 29.9377 34.5653C27.197 36.1483 23.949 36.3462 21.0926 35.5258C21.8183 32.6947 23.7443 30.2245 26.5107 28.6266C29.2804 27.0269 32.1257 26.5964 34.9106 27.3822ZM35.656 26.5644C32.4319 25.5057 29.1406 25.9528 26.0106 27.7607C22.877 29.5706 20.7054 32.4454 20.0106 35.7641C19.9584 36.0134 20.102 36.2621 20.344 36.3416C23.5325 37.3885 27.2757 37.2577 30.4379 35.4313C33.6204 33.5931 35.3075 30.3992 35.9894 27.1419L36.0811 26.704L35.656 26.5644Z" fill="url(#paint1_linear)"/>
<path fill-rule="evenodd" clip-rule="evenodd" d="M6.08943 27.3822C6.78835 30.2916 8.33971 32.9928 11.0623 34.5653C13.803 36.1483 17.0511 36.3462 19.9075 35.5258C19.1818 32.6947 17.2558 30.2245 14.4893 28.6266C11.7196 27.0269 8.87438 26.5964 6.08943 27.3822ZM5.34404 26.5644C8.56814 25.5057 11.8594 25.9528 14.9895 27.7607C18.1231 29.5706 20.2946 32.4454 20.9894 35.7641C21.0416 36.0134 20.898 36.2621 20.656 36.3416C17.4676 37.3885 13.7243 37.2577 10.5622 35.4313C7.37966 33.5931 5.69259 30.3992 5.01063 27.1419L4.91895 26.704L5.34404 26.5644Z" fill="url(#paint2_linear)"/>
<path fill-rule="evenodd" clip-rule="evenodd" d="M20 39.9998V26.4998H21V39.9998C21 40.2759 20.7762 40.4998 20.5 40.4998C20.2239 40.4998 20 40.2759 20 39.9998Z" fill="url(#paint3_linear)"/>
<path d="M21.175 20.6498H20.125V19.3448C18.49 19.1498 17.5 18.0248 17.5 16.5248H18.7C18.7 17.6498 19.375 18.3248 20.65 18.3248C21.925 18.3248 22.6 17.6498 22.6 16.8248C22.6 14.4998 17.575 15.6998 17.575 12.3248C17.575 11.1848 18.595 10.0298 20.125 9.81976V8.49976H21.175V9.81976C22.2847 10.0127 23.1616 10.8071 23.4626 11.8362L22.375 12.6248C22.375 11.5748 21.625 10.8248 20.65 10.8248C19.525 10.8248 18.775 11.5748 18.775 12.3248C18.775 14.6498 23.8 13.4498 23.8 16.8248C23.8 18.0548 22.81 19.1498 21.175 19.3448V20.6498Z" fill="url(#paint4_linear)"/>
<defs>
<linearGradient id="paint0_linear" x1="4.91895" y1="2.49976" x2="4.91895" y2="40.4998" gradientUnits="userSpaceOnUse">
<stop stop-color="#13E5BF"/>
<stop offset="1" stop-color="#01C38D"/>
</linearGradient>
<linearGradient id="paint1_linear" x1="4.91895" y1="2.49976" x2="4.91895" y2="40.4998" gradientUnits="userSpaceOnUse">
<stop stop-color="#13E5BF"/>
<stop offset="1" stop-color="#01C38D"/>
</linearGradient>
<linearGradient id="paint2_linear" x1="4.91895" y1="2.49976" x2="4.91895" y2="40.4998" gradientUnits="userSpaceOnUse">
<stop stop-color="#13E5BF"/>
<stop offset="1" stop-color="#01C38D"/>
</linearGradient>
<linearGradient id="paint3_linear" x1="4.91895" y1="2.49976" x2="4.91895" y2="40.4998" gradientUnits="userSpaceOnUse">
<stop stop-color="#13E5BF"/>
<stop offset="1" stop-color="#01C38D"/>
</linearGradient>
<linearGradient id="paint4_linear" x1="4.91895" y1="2.49976" x2="4.91895" y2="40.4998" gradientUnits="userSpaceOnUse">
<stop stop-color="#13E5BF"/>
<stop offset="1" stop-color="#01C38D"/>
</linearGradient>
</defs>
</svg>
